<?xml version="1.0" standalone="no"?>
<!DOCTYPE svg PUBLIC "-//W3C//DTD SVG 20010904//EN"
 "http://www.w3.org/TR/2001/REC-SVG-20010904/DTD/svg10.dtd">
<svg version="1.0" xmlns="http://www.w3.org/2000/svg"
 width="512.000000pt" height="512.000000pt" viewBox="0 0 512.000000 512.000000"
 preserveAspectRatio="xMidYMid meet">

<g transform="translate(0.000000,512.000000) scale(0.100000,-0.100000)"
fill="#000000" stroke="none">
<path d="M1220 4744 c-127 -25 -237 -88 -350 -203 -155 -157 -260 -355 -260
-490 0 -84 32 -127 210 -281 29 -25 69 -60 89 -77 73 -66 53 -31 -24 42 -43
41 -83 75 -87 75 -4 0 -8 6 -8 13 0 7 -14 25 -31 40 -18 15 -29 30 -26 33 6 6
104 -64 126 -90 8 -9 42 -38 75 -63 179 -135 413 -352 389 -360 -7 -3 -32 16
-56 41 -24 25 -49 46 -55 46 -7 0 -12 5 -12 10 0 6 -8 10 -17 10 -12 0 4 -22
50 -66 131 -128 273 -325 334 -462 31 -71 62 -195 64 -262 2 -78 -2 -168 -8
-147 -7 25 -20 21 -32 -10 -16 -43 -44 -85 -68 -106 -13 -10 -23 -25 -23 -33
0 -8 -4 -14 -9 -14 -5 0 -29 -20 -53 -44 -25 -24 -54 -47 -65 -50 -12 -4 -24
-13 -27 -21 -3 -8 -14 -15 -25 -15 -10 0 -21 -7 -25 -15 -3 -8 -12 -12 -21 -9
-8 4 -21 1 -29 -5 -7 -6 -16 -8 -19 -4 -4 3 -9 -2 -13 -11 -4 -10 -13 -15 -24
-11 -10 3 -21 1 -25 -5 -8 -13 -202 -14 -210 -1 -3 5 -17 8 -30 5 -17 -3 -33
3 -47 16 -12 11 -28 18 -34 16 -7 -3 -18 2 -24 10 -7 8 -18 14 -25 14 -7 0
-18 7 -25 15 -7 8 -21 15 -31 15 -9 0 -24 7 -33 15 -8 8 -19 15 -25 15 -17 0
-13 -37 4 -44 8 -3 15 -11 15 -17 0 -6 11 -22 25 -35 14 -13 25 -28 25 -34 0
-5 7 -10 15 -10 8 0 15 -5 15 -10 0 -6 27 -36 60 -68 82 -78 85 -80 117 -88
15 -4 34 -12 42 -18 20 -16 257 -14 273 2 6 6 19 12 28 12 14 0 99 41 124 60
151 115 236 267 298 534 16 72 32 137 34 144 6 21 24 13 44 -20 18 -30 20 -31
20 -10 0 12 4 30 9 40 5 9 16 53 25 97 8 44 18 94 22 110 3 17 9 59 12 95 4
36 11 71 15 78 5 7 8 97 7 200 -1 103 -2 198 -2 211 0 14 7 30 15 36 14 10 13
13 -4 23 -17 11 -19 9 -19 -22 0 -19 -4 -37 -9 -40 -5 -3 -11 -29 -14 -58 -20
-178 -31 -243 -61 -353 -9 -32 -16 -74 -16 -93 0 -36 -14 -36 -23 0 -37 163
-200 448 -347 608 -87 94 -144 152 -185 185 -28 21 -52 42 -55 45 -3 3 -21 16
-40 30 -19 13 -39 28 -45 32 -5 5 -41 31 -80 60 -104 76 -132 105 -145 154 -7
25 -22 50 -33 55 -16 9 -19 18 -13 56 9 68 53 140 133 220 81 80 192 143 290
163 77 16 178 8 230 -19 69 -35 83 -27 34 20 -65 60 -131 90 -209 94 -37 2
-78 1 -92 -1z"/>
<path d="M1892 3650 c0 -14 2 -19 5 -12 2 6 2 18 0 25 -3 6 -5 1 -5 -13z"/>
<path d="M114 3559 c-7 -12 2 -151 16 -249 15 -96 50 -373 60 -465 8 -72 18
-146 51 -395 5 -41 14 -113 19 -160 5 -47 16 -134 25 -195 8 -60 22 -166 30
-235 8 -69 19 -156 24 -195 6 -50 24 -103 61 -185 29 -63 61 -135 72 -160 12
-25 45 -101 75 -170 30 -69 58 -129 63 -135 4 -5 11 -21 15 -35 4 -14 27 -65
50 -115 23 -49 68 -151 99 -225 32 -74 64 -144 70 -155 7 -11 37 -76 66 -145
29 -69 58 -131 64 -137 12 -14 19 -8 217 181 52 50 135 129 185 175 163 153
224 214 224 222 0 5 5 9 11 9 6 0 45 33 87 73 41 39 94 90 117 112 24 22 103
97 178 168 l135 127 10 83 c6 45 16 129 22 187 6 58 18 161 26 230 28 248 33
297 49 440 9 80 20 177 25 215 5 39 16 140 25 225 9 85 25 227 35 315 42 339
42 395 6 395 -7 0 -19 7 -26 15 -7 8 -20 15 -29 15 -12 0 -11 -4 7 -18 42 -32
45 -30 -303 -204 -41 -21 -42 -26 -49 -178 -5 -116 -30 -497 -42 -645 -5 -58
-12 -85 -25 -98 -10 -9 -21 -17 -25 -17 -3 0 -16 -8 -29 -17 -12 -10 -33 -25
-45 -33 -12 -8 -53 -37 -90 -65 -37 -27 -78 -57 -90 -65 -12 -8 -31 -23 -42
-32 -12 -10 -24 -18 -27 -18 -4 0 -21 -13 -39 -29 l-32 -30 -1 -303 c0 -328
-6 -394 -35 -415 -11 -7 -30 -24 -44 -36 -14 -12 -45 -38 -69 -57 -25 -19 -54
-44 -66 -55 -23 -22 -37 -33 -144 -120 -122 -99 -117 -96 -128 -82 -6 6 -67
125 -137 263 l-127 251 -9 114 c-48 610 -44 580 -97 668 -25 41 -53 88 -63
105 -9 17 -37 65 -62 106 -60 101 -55 78 -87 415 -6 61 -15 151 -21 200 -5 50
-15 142 -21 205 -14 126 -7 112 -136 283 -24 31 -43 63 -43 72 0 17 -25 20
-36 4z"/>
<path d="M1968 3563 c7 -3 16 -2 19 1 4 3 -2 6 -13 5 -11 0 -14 -3 -6 -6z"/>
<path d="M2020 3530 c0 -5 7 -10 15 -10 8 0 15 5 15 10 0 6 -7 10 -15 10 -8 0
-15 -4 -15 -10z"/>
<path d="M2070 3500 c0 -5 7 -10 15 -10 8 0 15 5 15 10 0 6 -7 10 -15 10 -8 0
-15 -4 -15 -10z"/>
<path d="M4465 2950 c0 -300 1 -422 2 -272 2 149 2 395 0 545 -1 149 -2 27 -2
-273z"/>
<path d="M2120 3470 c0 -5 5 -10 10 -10 6 0 10 5 10 10 0 6 -4 10 -10 10 -5 0
-10 -4 -10 -10z"/>
<path d="M2744 3365 c0 -60 1 -84 3 -52 2 32 2 81 0 110 -2 29 -3 3 -3 -58z"/>
<path d="M2165 3440 c3 -5 13 -10 21 -10 8 0 14 5 14 10 0 6 -9 10 -21 10 -11
0 -17 -4 -14 -10z"/>
<path d="M2215 3410 c3 -5 13 -10 21 -10 8 0 12 5 9 10 -3 6 -13 10 -21 10 -8
0 -12 -4 -9 -10z"/>
<path d="M2741 3208 c-1 -12 -9 -18 -26 -18 -26 0 -56 -42 -54 -77 0 -10 9 2
20 26 16 35 23 42 40 38 21 -6 35 12 26 35 -4 8 -6 6 -6 -4z"/>
<path d="M3573 3151 c-59 -43 -116 -151 -155 -291 -24 -88 -31 -149 -35 -335
-6 -265 14 -385 91 -547 41 -86 79 -124 133 -134 63 -12 112 12 157 78 l39 57
-23 73 c-12 40 -28 93 -35 118 -7 25 -20 63 -29 85 l-17 40 -14 -31 c-18 -43
-40 -49 -63 -16 -33 49 -43 83 -52 183 -22 225 33 440 97 377 17 -17 55 -147
46 -161 -2 -4 -21 -5 -41 -2 -20 3 -43 2 -49 -3 -15 -9 -29 -139 -19 -176 l6
-26 140 0 140 0 0 139 c0 189 -30 347 -91 476 -39 83 -72 112 -134 120 -45 6
-54 4 -92 -24z"/>
<path d="M4755 2735 c0 -220 1 -309 2 -197 2 112 2 292 0 400 -1 108 -2 17 -2
-203z"/>
<path d="M5005 2725 c0 -220 1 -309 2 -197 2 112 2 292 0 400 -1 108 -2 17 -2
-203z"/>
<path d="M2653 3025 c0 -38 2 -53 4 -32 2 20 2 52 0 70 -2 17 -4 1 -4 -38z"/>
<path d="M2666 2900 c8 -43 14 -51 14 -19 0 13 -5 31 -10 39 -7 11 -8 5 -4
-20z"/>
<path d="M2682 2830 c0 -14 2 -19 5 -12 2 6 2 18 0 25 -3 6 -5 1 -5 -13z"/>
<path d="M2702 2725 c0 -16 2 -22 5 -12 2 9 2 23 0 30 -3 6 -5 -1 -5 -18z"/>
<path d="M4178 2701 c-25 -20 -49 -80 -47 -122 0 -13 7 1 15 31 9 34 24 64 40
78 33 29 26 39 -8 13z"/>
<path d="M4227 2713 c-3 -5 -1 -17 4 -28 7 -17 8 -17 8 8 1 27 -4 34 -12 20z"/>
<path d="M2723 2595 c0 -27 2 -38 4 -22 2 15 2 37 0 50 -2 12 -4 0 -4 -28z"/>
<path d="M4132 2430 c0 -14 2 -19 5 -12 2 6 2 18 0 25 -3 6 -5 1 -5 -13z"/>
<path d="M3022 2360 c0 -14 2 -19 5 -12 2 6 2 18 0 25 -3 6 -5 1 -5 -13z"/>
<path d="M4452 2355 c0 -16 2 -22 5 -12 2 9 2 23 0 30 -3 6 -5 -1 -5 -18z"/>
<path d="M2716 2288 c-3 -13 -8 -51 -11 -86 -15 -149 -110 -352 -165 -352 -10
0 -22 -4 -25 -10 -3 -6 4 -10 17 -10 73 0 173 217 195 423 6 55 -2 80 -11 35z"/>
<path d="M4443 2270 c0 -25 2 -35 4 -22 2 12 2 32 0 45 -2 12 -4 2 -4 -23z"/>
<path d="M3267 2223 c-4 -3 -7 -22 -6 -42 l1 -36 9 39 c9 39 8 52 -4 39z"/>
<path d="M4417 2149 c-24 -106 -74 -204 -133 -263 -33 -32 -41 -45 -24 -36 38
19 78 66 110 130 32 63 73 203 67 229 -2 9 -11 -18 -20 -60z"/>
<path d="M4988 2184 c-5 -4 -8 -21 -8 -38 1 -26 2 -28 11 -13 11 19 8 63 -3
51z"/>
<path d="M3239 2083 c-9 -32 -19 -67 -24 -78 l-7 -20 14 20 c17 23 42 108 36
125 -2 6 -10 -15 -19 -47z"/>
<path d="M4962 2065 c-7 -26 -11 -50 -8 -52 7 -7 28 65 24 84 -2 9 -9 -5 -16
-32z"/>
<path d="M4030 2017 c0 -4 11 -29 24 -55 25 -48 56 -84 56 -64 0 6 -5 14 -10
17 -6 4 -24 30 -40 58 -16 29 -30 48 -30 44z"/>
<path d="M4931 1975 c-20 -51 -75 -125 -93 -125 -10 0 -18 -4 -18 -10 0 -19
33 -10 57 16 30 32 76 122 70 137 -3 7 -10 -1 -16 -18z"/>
<path d="M3182 1933 c-25 -47 -58 -83 -77 -83 -8 0 -15 -4 -15 -10 0 -21 34
-9 61 21 30 34 64 98 56 106 -3 3 -15 -12 -25 -34z"/>
<path d="M4655 1933 c17 -41 30 -59 60 -85 22 -19 55 -24 55 -8 0 6 -8 10 -18
10 -22 0 -63 42 -86 88 -22 44 -30 41 -11 -5z"/>
<path d="M2920 1954 c0 -14 40 -76 66 -102 13 -13 31 -22 41 -20 14 3 11 8
-15 22 -18 9 -46 38 -63 64 -16 25 -29 42 -29 36z"/>
<path d="M2410 1872 c0 -7 6 -20 14 -28 17 -16 46 -19 46 -4 0 6 -7 10 -16 10
-9 0 -23 8 -30 18 -9 11 -13 13 -14 4z"/>
<path d="M4120 1870 c0 -5 10 -10 23 -10 18 0 19 2 7 10 -19 13 -30 13 -30 0z"/>
<path d="M3432 1608 c-19 -25 -54 -107 -50 -120 3 -7 11 5 18 27 7 22 21 55
31 73 19 33 19 42 1 20z"/>
<path d="M4464 1475 c0 -82 2 -115 3 -72 2 43 2 110 0 150 -1 40 -3 5 -3 -78z"/>
<path d="M2680 1602 c0 -8 -20 -12 -59 -12 -44 0 -62 -4 -72 -17 -12 -16 -12
-17 1 -7 8 6 44 12 80 13 71 2 79 6 62 23 -9 9 -12 9 -12 0z"/>
<path d="M3106 1591 c-40 -4 -61 -11 -64 -21 -5 -13 -3 -13 11 -2 11 9 36 13
72 10 39 -2 55 1 55 10 0 6 -3 11 -7 10 -5 -1 -35 -4 -67 -7z"/>
<path d="M2818 1583 c18 -2 45 -2 60 0 15 2 0 4 -33 4 -33 0 -45 -2 -27 -4z"/>
<path d="M3843 1583 c31 -2 83 -2 115 0 31 2 5 3 -58 3 -63 0 -89 -1 -57 -3z"/>
<path d="M4733 1583 c8 -7 108 -5 116 3 2 2 -24 4 -59 4 -35 0 -60 -3 -57 -7z"/>
<path d="M4060 1562 c0 -5 7 -15 15 -22 8 -7 15 -8 15 -2 0 5 -7 15 -15 22 -8
7 -15 8 -15 2z"/>
<path d="M4697 1563 c-10 -9 -9 -23 2 -23 5 0 11 7 15 15 5 15 -5 20 -17 8z"/>
<path d="M4875 1550 c3 -5 8 -10 11 -10 2 0 4 5 4 10 0 6 -5 10 -11 10 -5 0
-7 -4 -4 -10z"/>
<path d="M5023 1500 c0 -25 2 -35 4 -22 2 12 2 32 0 45 -2 12 -4 2 -4 -23z"/>
<path d="M2410 1524 c1 -15 29 -48 36 -41 3 3 -3 16 -15 28 -12 13 -21 19 -21
13z"/>
<path d="M4682 1500 c0 -19 2 -27 5 -17 2 9 2 25 0 35 -3 9 -5 1 -5 -18z"/>
<path d="M4223 1485 c0 -22 2 -30 4 -17 2 12 2 30 0 40 -3 9 -5 -1 -4 -23z"/>
<path d="M2465 1460 c3 -5 11 -10 16 -10 6 0 7 5 4 10 -3 6 -11 10 -16 10 -6
0 -7 -4 -4 -10z"/>
<path d="M3372 1440 c0 -19 2 -27 5 -17 2 9 2 25 0 35 -3 9 -5 1 -5 -18z"/>
<path d="M2500 1430 c0 -5 7 -10 16 -10 8 0 12 5 9 10 -3 6 -10 10 -16 10 -5
0 -9 -4 -9 -10z"/>
<path d="M4183 1394 c-24 -37 -17 -46 11 -15 10 11 16 26 14 34 -2 9 -11 2
-25 -19z"/>
<path d="M4995 1398 c-10 -18 -24 -41 -33 -50 -17 -21 -7 -24 12 -5 19 18 49
78 42 84 -2 3 -12 -10 -21 -29z"/>
<path d="M2540 1400 c0 -5 5 -10 10 -10 6 0 10 5 10 10 0 6 -4 10 -10 10 -5 0
-10 -4 -10 -10z"/>
<path d="M4580 1394 c0 -22 76 -111 87 -100 3 2 -8 17 -24 33 -16 15 -37 39
-46 53 -9 13 -17 20 -17 14z"/>
<path d="M3911 1374 c0 -11 3 -14 6 -6 3 7 2 16 -1 19 -3 4 -6 -2 -5 -13z"/>
<path d="M2703 1323 c-18 -38 -8 -41 12 -4 8 17 12 31 8 31 -5 0 -14 -12 -20
-27z"/>
<path d="M4121 1336 c-10 -12 -8 -13 8 -9 12 3 21 9 21 14 0 14 -16 11 -29 -5z"/>
<path d="M3282 1311 c2 -7 7 -12 11 -12 12 1 9 15 -3 20 -7 2 -11 -2 -8 -8z"/>
<path d="M4926 1311 c-4 -7 -5 -15 -2 -18 9 -9 19 4 14 18 -4 11 -6 11 -12 0z"/>
<path d="M4060 1300 c0 -13 11 -13 30 0 12 8 11 10 -7 10 -13 0 -23 -4 -23
-10z"/>
<path d="M2415 1288 c6 -14 25 -17 127 -20 66 -2 122 0 125 5 2 4 -49 7 -114
7 -82 0 -123 4 -132 13 -10 10 -11 9 -6 -5z"/>
<path d="M3655 1289 c-5 -7 -56 -10 -146 -8 -77 1 -142 -1 -146 -4 -3 -4 64
-7 150 -7 133 0 157 2 157 15 0 18 -6 19 -15 4z"/>
<path d="M4455 1291 c-6 -6 -32 -12 -60 -14 -48 -3 -48 -3 13 -5 49 -2 62 1
62 13 0 17 -3 18 -15 6z"/>
<path d="M2970 1280 l-55 -7 58 -1 c32 -1 57 2 57 8 0 6 -1 9 -2 8 -2 -1 -28
-4 -58 -8z"/>
<path d="M3848 1273 c29 -2 74 -2 100 0 26 2 2 3 -53 3 -55 0 -76 -1 -47 -3z"/>
<path d="M4694 1271 c3 -5 15 -7 26 -4 28 7 25 13 -6 13 -14 0 -23 -4 -20 -9z"/>
<path d="M4853 1273 c9 -2 23 -2 30 0 6 3 -1 5 -18 5 -16 0 -22 -2 -12 -5z"/>
</g>
</svg>
